<svg width="724" height="455" viewBox="0 0 724 455" fill="none" xmlns="http://www.w3.org/2000/svg">
<path d="M467.181 0.958003C318.761 -0.956749 179.2 121.376 119.367 290.651L68.0147 167.815C59.4515 147.331 38.1527 141.576 20.4388 154.96C2.72585 168.34 -4.6922 195.795 3.87095 216.279L95.2035 434.756C95.2061 434.762 95.2109 434.77 95.2139 434.78C95.7353 436.022 96.308 437.226 96.9341 438.38C97.2193 438.91 97.5476 439.386 97.8526 439.89C98.1915 440.454 98.5129 441.034 98.8792 441.569C99.365 442.284 99.8887 442.937 100.411 443.596C100.641 443.883 100.854 444.2 101.092 444.48C101.609 445.092 102.16 445.644 102.71 446.202C103 446.497 103.274 446.813 103.573 447.095C104.058 447.555 104.573 447.958 105.081 448.374C105.486 448.707 105.881 449.062 106.301 449.377C106.72 449.687 107.161 449.947 107.59 450.228C108.133 450.589 108.667 450.963 109.233 451.279C109.578 451.471 109.937 451.625 110.286 451.802C110.956 452.145 111.622 452.489 112.318 452.778C112.623 452.905 112.942 452.991 113.253 453.106C113.999 453.383 114.744 453.661 115.517 453.87C116.016 454.009 116.534 454.079 117.041 454.188C117.634 454.312 118.212 454.468 118.817 454.553C119.968 454.719 121.136 454.803 122.316 454.821C122.326 454.82 122.336 454.823 122.349 454.825C122.491 454.826 122.626 454.804 122.769 454.802C123.792 454.804 124.82 454.764 125.855 454.649C126.234 454.609 126.605 454.526 126.983 454.47C127.771 454.351 128.558 454.235 129.35 454.055C129.869 453.934 130.38 453.762 130.89 453.618C131.527 453.44 132.165 453.271 132.801 453.046C133.433 452.823 134.054 452.544 134.677 452.282C135.184 452.068 135.695 451.878 136.2 451.635C136.965 451.267 137.711 450.84 138.457 450.414C138.815 450.21 139.178 450.035 139.535 449.815C140.503 449.224 141.445 448.571 142.374 447.884C142.506 447.786 142.643 447.711 142.775 447.611L142.841 447.561C142.884 447.528 142.923 447.499 142.965 447.468L331.714 304.86C340.573 298.169 346.853 287.959 349.851 276.863C352.849 265.768 352.562 253.781 348.282 243.543C339.721 223.06 318.42 217.304 300.706 230.688L183.275 319.411C229.856 185.28 340.135 88.046 457.32 89.5617C473.404 89.7691 489.079 91.8489 504.184 95.6823C559.571 109.732 607.307 147.366 639.566 202.836C645.431 212.925 650.785 223.598 655.58 234.833C664.279 255.214 685.637 260.752 703.284 247.214C712.018 240.51 718.204 230.39 721.171 219.409C724.2 208.199 723.876 196.091 719.481 185.799C676.742 85.6869 599.106 20.2639 507.149 4.5955C494.099 2.36267 480.755 1.13276 467.181 0.958003Z" fill="#7127BA"/>
</svg>
